<?xml version="1.0" standalone="no"?>
<!DOCTYPE svg PUBLIC "-//W3C//DTD SVG 20010904//EN"
 "http://www.w3.org/TR/2001/REC-SVG-20010904/DTD/svg10.dtd">
<svg version="1.0" xmlns="http://www.w3.org/2000/svg"
 width="577.000000pt" height="577.000000pt" viewBox="0 0 577.000000 577.000000"
 preserveAspectRatio="xMidYMid meet">
<metadata>
Created by potrace 1.14, written by Peter Selinger 2001-2017
</metadata>
<g transform="translate(0.000000,577.000000) scale(0.100000,-0.100000)"
fill="#000000" stroke="none">
<path d="M2848 5039 c-68 -10 -103 -26 -151 -73 -114 -111 -113 -280 4 -395
27 -27 49 -51 49 -55 0 -12 -143 -6 -201 9 -126 33 -227 108 -346 258 -111
139 -166 176 -274 181 -82 4 -157 -14 -304 -73 -106 -43 -260 -95 -267 -91 -2
1 -16 -4 -33 -10 -16 -7 -37 -13 -45 -15 -8 -2 -33 -8 -55 -14 -22 -5 -55 -13
-74 -16 -19 -3 -38 -8 -42 -10 -4 -3 -22 -7 -40 -9 -19 -3 -72 -12 -119 -20
-47 -8 -105 -18 -130 -21 -25 -3 -63 -7 -85 -10 -80 -11 -143 -15 -289 -20
-82 -4 -152 -6 -155 -7 -3 0 -10 1 -16 2 -5 1 -61 2 -123 2 -127 1 -150 -9
-138 -56 18 -70 127 -141 239 -154 72 -9 234 -7 327 3 36 4 81 8 100 10 60 5
147 20 178 29 9 3 35 8 57 12 22 3 50 7 61 9 12 2 31 8 42 14 25 13 42 14 42
2 0 -7 -69 -33 -125 -48 -39 -10 -118 -29 -157 -38 -22 -5 -72 -13 -128 -20
-14 -2 -41 -6 -60 -8 -51 -8 -162 -17 -259 -22 -78 -4 -100 -12 -101 -37 0
-14 62 -67 103 -89 69 -35 199 -30 392 16 39 9 79 18 90 20 28 5 53 11 105 26
25 7 48 13 53 15 4 1 9 3 12 4 3 1 8 3 13 4 4 1 13 5 20 9 6 5 12 4 12 -2 0
-6 -21 -19 -46 -31 -54 -23 -204 -71 -204 -64 0 3 -8 0 -18 -5 -11 -6 -30 -12
-43 -15 -28 -5 -196 -45 -221 -52 -42 -13 -2 -65 73 -95 75 -29 151 -19 337
48 23 8 48 16 55 17 6 2 25 8 40 14 16 7 31 12 33 12 3 0 26 9 51 21 25 11 47
18 49 16 14 -14 -156 -94 -278 -131 -48 -14 -94 -34 -103 -43 -15 -15 -15 -17
3 -35 34 -35 128 -48 230 -34 46 7 134 48 221 103 29 19 55 32 57 30 12 -11
-70 -72 -153 -114 -51 -25 -93 -52 -93 -59 0 -7 15 -17 33 -23 35 -11 127 -26
140 -23 4 1 24 4 44 7 38 5 75 26 186 108 37 27 70 47 72 45 8 -8 -48 -63 -98
-97 -26 -18 -56 -42 -67 -54 -20 -21 -20 -22 -1 -40 14 -14 33 -19 79 -19 34
-1 68 4 75 10 8 7 16 10 18 7 6 -6 96 79 137 129 39 49 52 43 17 -8 -14 -20
-25 -41 -25 -46 0 -6 -4 -10 -9 -10 -11 0 -41 -46 -46 -70 -5 -26 51 -42 100
-29 33 9 85 62 85 87 0 6 3 12 8 14 4 2 16 20 26 41 11 20 21 35 24 32 7 -6
-27 -93 -43 -108 -40 -41 -20 -78 40 -71 52 6 73 25 115 103 41 76 46 69 18
-26 -13 -46 -1 -73 32 -73 31 0 80 31 80 50 0 10 4 20 10 22 9 3 17 31 20 73
1 20 1 20 9 0 4 -11 4 -35 0 -53 -9 -42 19 -77 54 -66 32 9 38 17 58 76 18 51
20 52 23 10 1 -26 25 -52 47 -52 31 0 72 43 73 78 1 36 11 42 21 13 8 -26 30
-43 60 -47 29 -3 75 45 75 78 0 19 2 20 18 6 46 -40 79 -29 167 57 32 30 60
55 64 55 3 0 7 -42 7 -92 1 -92 12 -487 20 -685 2 -57 2 -103 1 -103 -4 0
-118 39 -137 47 -8 3 -21 7 -29 9 -7 1 -37 12 -65 25 -122 52 -176 79 -176 89
0 5 -6 10 -14 10 -7 0 -30 18 -50 40 -50 56 -51 106 -1 155 38 36 55 41 175
49 115 8 191 41 211 94 8 21 5 28 -21 50 -58 48 -128 67 -190 51 -8 -2 -50
-25 -93 -51 -42 -26 -93 -55 -112 -64 -85 -40 -146 -139 -153 -252 -4 -66 -2
-78 27 -137 19 -37 49 -79 73 -99 40 -35 160 -98 250 -131 l48 -18 85 42 c46
22 104 49 127 58 24 9 52 22 63 29 11 6 31 15 45 19 14 4 39 13 55 20 17 7 41
17 55 22 20 8 25 17 26 54 4 114 17 537 19 642 1 64 5 120 8 123 3 3 34 -21
68 -55 34 -34 68 -61 75 -61 8 0 14 -5 14 -11 0 -15 50 -3 70 17 13 13 16 11
26 -18 6 -17 22 -41 37 -52 23 -17 30 -18 51 -7 13 7 30 24 37 38 l13 25 9
-33 c22 -87 110 -106 120 -27 4 35 17 48 18 20 3 -46 27 -90 53 -99 36 -12 45
-12 57 3 11 14 12 29 6 91 -4 45 8 32 22 -22 20 -79 90 -127 131 -90 17 15 17
18 -1 77 -27 87 -19 91 19 9 36 -76 63 -100 119 -105 54 -4 69 15 46 56 -10
18 -20 35 -23 38 -8 8 -30 75 -30 91 0 8 20 -22 44 -66 24 -44 54 -87 67 -97
29 -21 75 -28 110 -16 21 7 25 14 21 33 -2 14 -8 25 -13 25 -5 0 -9 6 -9 14 0
8 -4 16 -8 18 -5 2 -23 25 -41 51 -35 52 -33 81 3 33 38 -52 113 -124 147
-142 46 -24 146 -22 171 3 9 10 14 23 10 29 -7 9 -72 60 -122 94 -27 18 -65
70 -52 70 6 0 24 -13 42 -30 18 -16 36 -30 40 -30 5 0 16 -7 25 -17 23 -23
164 -92 178 -88 7 3 36 7 66 9 68 7 121 24 121 41 0 7 -42 33 -92 59 -83 41
-166 101 -155 112 2 2 44 -20 92 -49 49 -28 92 -52 95 -53 3 0 19 -6 35 -13
73 -31 159 -33 240 -6 6 1 20 6 32 10 27 9 37 33 20 49 -7 8 -59 28 -114 45
-114 36 -233 91 -266 123 -12 11 -17 19 -12 16 6 -2 21 -9 35 -16 35 -16 85
-34 85 -30 1 2 12 -4 25 -13 14 -9 39 -20 55 -24 17 -4 35 -9 40 -11 6 -1 48
-14 95 -29 117 -35 162 -39 225 -20 55 18 105 56 105 80 0 8 -16 19 -37 24
-54 14 -135 33 -158 36 -11 2 -31 7 -45 13 -14 5 -28 10 -32 11 -5 0 -9 1 -10
2 -2 0 -11 2 -20 4 -20 4 -145 43 -168 52 -8 3 -17 7 -20 8 -3 0 -23 11 -45
22 -45 25 -30 31 16 7 17 -8 33 -13 36 -10 3 3 26 -3 52 -13 25 -11 48 -19 51
-18 3 0 30 -6 60 -13 65 -16 54 -14 110 -24 25 -5 54 -10 65 -13 38 -8 150
-18 185 -18 50 2 110 16 110 26 0 5 6 9 13 9 17 0 87 69 87 86 0 21 -17 26
-103 29 -117 4 -323 26 -397 41 -14 3 -34 7 -46 9 -35 5 -188 45 -209 54 -11
5 -42 17 -68 26 -69 25 -54 26 33 4 41 -11 86 -22 100 -24 14 -2 36 -7 50 -10
188 -40 491 -61 623 -43 142 19 277 138 224 196 -12 14 -31 17 -87 16 -39 -1
-77 -5 -85 -8 -8 -3 -15 -2 -15 2 0 4 -71 7 -158 8 -163 0 -369 14 -460 29
-21 4 -50 8 -67 10 -49 6 -107 16 -155 27 -25 5 -56 12 -70 14 -108 20 -406
111 -507 155 -125 55 -190 71 -283 72 -124 0 -166 -25 -288 -175 -59 -73 -119
-138 -127 -138 -2 0 -19 -14 -37 -30 -34 -32 -148 -92 -183 -97 -65 -10 -205
-14 -205 -7 0 5 22 30 49 56 60 58 83 105 87 177 4 57 -21 161 -37 161 -5 0
-9 5 -9 11 0 13 -46 60 -81 82 -46 29 -120 44 -181 36z m-1748 -503 c0 -2 -7
-7 -16 -10 -8 -3 -12 -2 -9 4 6 10 25 14 25 6z"/>
<path d="M3145 3843 c-16 -8 -42 -27 -57 -41 -26 -24 -27 -26 -11 -53 17 -29
70 -62 115 -73 15 -3 69 -9 120 -12 74 -4 100 -10 125 -27 37 -25 64 -72 58
-102 -2 -11 -4 -25 -4 -32 -2 -20 -74 -88 -126 -117 -27 -15 -72 -37 -100 -48
-54 -21 -294 -108 -310 -112 -5 -1 -20 -8 -32 -14 -13 -7 -23 -11 -23 -8 0 3
-28 -7 -62 -21 -78 -32 -113 -45 -113 -43 0 5 -138 -68 -180 -95 -112 -72
-167 -155 -168 -255 -1 -97 22 -152 105 -242 38 -41 159 -128 179 -128 6 0 40
18 149 81 14 8 27 17 30 20 3 3 32 23 65 45 l61 39 1 70 c2 186 6 275 12 275
10 0 122 -59 158 -83 42 -28 65 -76 58 -118 -10 -54 -20 -66 -123 -147 -38
-29 -323 -204 -396 -242 -50 -26 -111 -86 -140 -139 -23 -43 -27 -61 -25 -114
4 -93 49 -165 139 -222 45 -29 72 -32 90 -10 7 8 18 15 25 15 7 0 23 10 37 22
14 13 38 30 54 39 16 8 40 22 54 30 14 8 26 15 28 16 8 3 11 44 11 151 1 73 5
112 12 112 6 0 35 -17 65 -37 102 -71 114 -161 31 -221 -61 -43 -107 -71 -107
-65 0 3 -8 -1 -17 -9 -10 -8 -58 -39 -108 -68 -116 -69 -182 -135 -190 -193
-7 -50 -1 -81 21 -116 22 -33 72 -79 96 -87 17 -5 78 29 78 45 0 3 -13 15 -30
24 -37 22 -71 70 -67 94 6 31 24 68 38 80 27 21 128 73 142 73 8 0 20 7 27 15
6 8 15 14 18 12 4 -1 46 18 95 42 140 70 204 150 207 256 1 61 -1 69 -27 120
-22 41 -60 81 -103 108 -24 15 -29 13 -101 -22 -42 -21 -94 -46 -115 -55 -22
-9 -52 -24 -67 -33 l-29 -15 5 -129 c2 -71 2 -131 -1 -133 -2 -3 -26 6 -51 20
-127 66 -145 165 -44 241 21 15 40 30 43 33 3 3 55 30 115 60 61 30 112 58
113 63 2 4 10 7 17 7 8 0 37 14 65 30 28 17 55 30 60 30 6 0 10 4 10 9 0 5 11
12 26 15 36 9 165 142 193 199 66 136 21 286 -110 371 -26 17 -31 16 -225 -49
-109 -37 -206 -71 -216 -76 -16 -9 -17 -24 -13 -184 3 -117 1 -175 -6 -175
-17 0 -176 118 -198 146 -21 27 -37 85 -28 106 2 7 5 17 5 21 1 28 180 137
249 152 10 2 51 16 92 30 41 15 81 28 90 30 46 10 310 112 399 156 88 43 181
111 191 141 1 4 10 27 21 50 21 48 27 115 15 168 -9 40 -41 107 -61 128 -8 7
-14 17 -14 21 0 7 -106 74 -228 143 -55 32 -139 37 -187 11z"/>
<path d="M3005 1768 c-22 -11 -42 -22 -45 -25 -2 -2 13 -19 35 -37 35 -29 39
-38 38 -76 -1 -37 -6 -48 -44 -81 -24 -22 -48 -39 -52 -39 -7 0 -65 -38 -77
-50 -3 -3 -28 -23 -57 -44 -61 -46 -82 -90 -78 -159 3 -40 35 -107 50 -107 5
0 -5 30 -15 45 -3 6 -6 17 -5 25 1 8 3 24 3 36 3 35 87 106 167 143 11 5 37
21 58 35 21 14 40 26 43 26 14 0 85 77 99 106 21 46 19 112 -6 153 -41 67 -61
76 -114 49z"/>
<path d="M2888 1715 c-50 -26 -57 -40 -53 -95 2 -19 3 -50 4 -68 1 -32 1 -32
29 -17 61 33 65 39 68 125 2 44 2 80 1 80 -1 -1 -23 -12 -49 -25z"/>
<path d="M2969 1361 l-24 -19 27 -22 c44 -34 56 -117 24 -160 -10 -13 -9 -13
6 -1 46 36 59 141 24 194 -22 32 -27 33 -57 8z"/>
<path d="M2900 1327 c-38 -18 -52 -35 -53 -65 -1 -82 14 -494 19 -507 6 -16
29 -21 37 -7 3 4 8 99 12 212 3 113 7 244 9 293 1 48 2 87 2 86 -1 0 -12 -6
-26 -12z"/>
</g>
</svg>
