<?xml version="1.0" ?><!-- Uploaded to: SVG Repo, www.svgrepo.com, Generator: SVG Repo Mixer Tools -->
<svg width="800px" height="800px" viewBox="0 0 100 100" data-name="Layer 1" id="Layer_1" xmlns="http://www.w3.org/2000/svg"><defs><style>.cls-1,.cls-2{fill:none;stroke:#000000;stroke-linejoin:round;stroke-width:2px;}.cls-2{stroke-linecap:round;}</style></defs><path class="cls-1" d="M39.38,35.49v9a5.53,5.53,0,0,1-5.53,5.54H20A23.41,23.41,0,0,1,39.38,35.49Z"/><path class="cls-1" d="M88.38,26.34v17L66.71,45.23v2.19a16,16,0,0,1-16,16H23a4.64,4.64,0,0,1-4.64-4.65A23.13,23.13,0,0,1,20,50.08H33.85a5.53,5.53,0,0,0,5.53-5.54v-9a23.81,23.81,0,0,1,2.4-.12H78.24l2.93-9Z"/><rect class="cls-1" height="2.95" width="10.37" x="42.17" y="32.42"/><rect class="cls-1" height="9.59" width="4.22" x="45.24" y="22.83"/><path class="cls-1" d="M45.87,19h3a2.91,2.91,0,0,1,2.91,2.91v.95a0,0,0,0,1,0,0H43a0,0,0,0,1,0,0v-.95A2.91,2.91,0,0,1,45.87,19Z"/><line class="cls-2" x1="42.96" x2="13.08" y1="21.88" y2="21.88"/><line class="cls-2" x1="81.61" x2="51.73" y1="21.88" y2="21.88"/><circle class="cls-2" cx="51.73" cy="49.1" r="7.96"/><path class="cls-2" d="M57.32,48.11v2a.7.7,0,0,1-.71.7H53.43V54a.71.71,0,0,1-.71.71h-2A.71.71,0,0,1,50,54V50.79H46.85a.7.7,0,0,1-.7-.7v-2a.7.7,0,0,1,.7-.7H50V44.22a.71.71,0,0,1,.71-.71h2a.71.71,0,0,1,.71.71v3.19h3.18A.7.7,0,0,1,57.32,48.11Z"/><path class="cls-2" d="M12.21,65s.86,4.08,4.07,4.61,46.57.24,46.57.24a6.51,6.51,0,0,0,4.71-2.42"/><line class="cls-2" x1="29.71" x2="27.17" y1="63.44" y2="69.89"/><line class="cls-2" x1="51.73" x2="49.19" y1="63.44" y2="69.89"/></svg>